REM MD5 409f811329b046fe8a9cc196c8f43ba5
FILE "Hybrid (Europe).bin" BINARY
  TRACK 01 MODE2/2352
    INDEX 01 00:00:00
  TRACK 02 AUDIO
    INDEX 00 12:01:72
    INDEX 01 12:03:72
  TRACK 03 AUDIO
    INDEX 00 14:47:04
    INDEX 01 14:49:04
  TRACK 04 AUDIO
    INDEX 00 18:15:11
    INDEX 01 18:17:11
  TRACK 05 AUDIO
    INDEX 00 21:37:23
    INDEX 01 21:39:23
  TRACK 06 AUDIO
    INDEX 00 24:49:24
    INDEX 01 24:51:24
REM LEADOUT 28:15:21
